# xmcd CD database file
#
# Track frame offsets:
#	150
#	23462
#	36862
#	48197
#	70814
#	80062
#	106705
#	116867
#	145497
#	159588
#	186155
#	201879
#	213237
#	227646
#	249596
#	295750
#	304917
#
# Disc length: 4308 seconds
#
# Revision: 0
# Processed by: cddbd v1.5.2PL0 Copyright (c) Steve Scherf et al.
# Submitted via: CDex 1.86
#
DISCID=ee10d211
DTITLE=Vagif Mustapha-Zadeh - Jazz Compositions
DYEAR=1900
DGENRE=Jazz
TTITLE0=Expecting Aziza
TTITLE1=Quite alone
TTITLE2=Riga in June
TTITLE3=Mugam
TTITLE4=Favourite compositions
TTITLE5=The feeling prompts you
TTITLE6=The moon appears
TTITLE7=Willpower
TTITLE8=Nature in our native land
TTITLE9=Persistence
TTITLE10=Striving
TTITLE11=In the garden
TTITLE12=Dark-browed girl
TTITLE13=The hottest day in Baku
TTITLE14=Concerto #2
TTITLE15=Fallen leaves
TTITLE16=Bemsha swing
EXTD=
EXTT0=
EXTT1=
EXTT2=
EXTT3=
EXTT4=
EXTT5=
EXTT6=
EXTT7=
EXTT8=
EXTT9=
EXTT10=
EXTT11=
EXTT12=
EXTT13=
EXTT14=
EXTT15=
EXTT16=
PLAYORDER=
